<svg width="53" height="53" viewBox="0 0 53 53" fill="none" xmlns="http://www.w3.org/2000/svg">
<path d="M35.3333 17.6667C38.8474 17.6667 42.2176 19.0626 44.7025 21.5475C47.1874 24.0324 48.5833 27.4025 48.5833 30.9167V46.375H39.75V30.9167C39.75 29.7453 39.2847 28.6219 38.4564 27.7936C37.6281 26.9653 36.5047 26.5 35.3333 26.5C34.162 26.5 33.0386 26.9653 32.2103 27.7936C31.382 28.6219 30.9167 29.7453 30.9167 30.9167V46.375H22.0833V30.9167C22.0833 27.4025 23.4793 24.0324 25.9642 21.5475C28.449 19.0626 31.8192 17.6667 35.3333 17.6667V17.6667Z" stroke="white" stroke-width="2" stroke-linecap="round" stroke-linejoin="round"/>
<path d="M13.25 19.875H4.41667V46.375H13.25V19.875Z" stroke="white" stroke-width="2" stroke-linecap="round" stroke-linejoin="round"/>
<path d="M8.83334 13.25C11.2726 13.25 13.25 11.2726 13.25 8.83333C13.25 6.39407 11.2726 4.41666 8.83334 4.41666C6.39408 4.41666 4.41667 6.39407 4.41667 8.83333C4.41667 11.2726 6.39408 13.25 8.83334 13.25Z" stroke="white" stroke-width="2" stroke-linecap="round" stroke-linejoin="round"/>
</svg>
