<svg width="53" height="53" viewBox="0 0 53 53" fill="none" xmlns="http://www.w3.org/2000/svg">
<g clip-path="url(#clip0_1_89)">
<path d="M9.42577 36.618C6.95979 32.4575 6.09723 27.54 7 22.7886C7.90277 18.0372 10.5088 13.7787 14.3289 10.8126C18.1489 7.8465 22.9203 6.37673 27.7472 6.67924C32.5741 6.98174 37.1246 9.03571 40.5444 12.4556C43.9643 15.8754 46.0183 20.4259 46.3208 25.2528C46.6233 30.0797 45.1535 34.8511 42.1874 38.6711C39.2213 42.4912 34.9628 45.0972 30.2114 46C25.46 46.9028 20.5425 46.0402 16.382 43.5742L9.50858 45.5203C9.22697 45.6027 8.92839 45.6078 8.64414 45.5351C8.35989 45.4624 8.10042 45.3145 7.89295 45.107C7.68548 44.8996 7.53765 44.6401 7.46493 44.3559C7.39222 44.0716 7.39731 43.773 7.47968 43.4914L9.42577 36.618Z" stroke="#25D366" stroke-opacity="0.76" stroke-width="2.5" stroke-linecap="round" stroke-linejoin="round"/>
<path d="M31.4894 38.0937C29.3102 38.0992 27.1513 37.674 25.1369 36.8425C23.1224 36.0111 21.2921 34.7898 19.7512 33.2488C18.2102 31.7078 16.9889 29.8775 16.1574 27.8631C15.326 25.8487 14.9008 23.6898 14.9062 21.5105C14.9117 19.9767 15.5249 18.5076 16.6114 17.4249C17.6979 16.3423 19.1693 15.7344 20.7031 15.7344V15.7344C20.9562 15.7324 21.2051 15.7986 21.4237 15.9261C21.6423 16.0536 21.8225 16.2377 21.9453 16.459L24.3676 20.6824C24.5116 20.9392 24.5855 21.2293 24.5819 21.5237C24.5783 21.818 24.4972 22.1063 24.3469 22.3594L22.4008 25.6098C23.3976 27.8273 25.1727 29.6024 27.3902 30.5992L30.6406 28.6531C30.8937 28.5028 31.1819 28.4217 31.4763 28.4181C31.7707 28.4144 32.0608 28.4884 32.3176 28.6324L36.541 31.0547C36.7623 31.1775 36.9464 31.3577 37.0739 31.5763C37.2014 31.7949 37.2676 32.0438 37.2656 32.2969C37.2602 33.8291 36.6506 35.2972 35.5691 36.3826C34.4876 37.468 33.0216 38.0829 31.4894 38.0937V38.0937Z" stroke="#25D366" stroke-opacity="0.76" stroke-width="2.5" stroke-linecap="round" stroke-linejoin="round"/>
</g>
<defs>
<clipPath id="clip0_1_89">
<rect width="53" height="53" fill="white"/>
</clipPath>
</defs>
</svg>
